 <svg  version="1.0" xmlns="http://www.w3.org/2000/svg"  width="300.000000pt" height="344.000000pt" viewBox="0 0 300.000000 344.000000"  preserveAspectRatio="xMidYMid meet">  <g transform="translate(0.000000,344.000000) scale(0.050000,-0.050000)" fill="#008cca" stroke="none"> <path d="M1360 6196 c-159 -122 -382 -291 -495 -376 l-204 -155 1896 1 1895 0 389 377 389 376 -1790 -1 -1790 0 -290 -222z"/> <path d="M5040 6197 c-104 -100 -278 -267 -385 -372 l-195 -191 0 -1007 c0 -554 5 -1007 11 -1007 6 0 186 163 400 363 l389 363 -2 1017 c-1 559 -8 1017 -15 1016 -7 0 -98 -82 -203 -182z"/> <path d="M640 4620 l0 -1020 915 3 c503 2 890 7 860 11 -77 12 -71 35 74 265 68 106 69 106 159 -70 79 -152 79 -176 2 -195 -22 -5 372 -10 875 -12 l915 -2 0 1020 0 1020 -1900 0 -1900 0 0 -1020z m3129 719 c66 -45 149 -95 185 -112 91 -44 87 -51 -95 -159 -88 -52 -165 -102 -171 -111 -20 -33 -65 -16 -72 25 -6 41 -14 42 -556 45 l-550 3 -6 125 -6 125 551 0 551 0 0 70 c0 90 22 89 169 -11z m-2349 -339 l0 -80 550 0 550 0 0 -120 0 -120 -560 0 -560 0 0 -50 c0 -27 -5 -50 -12 -50 -10 0 -337 209 -367 234 -23 19 331 264 384 266 8 0 15 -36 15 -80z m2405 -377 c223 -122 219 -116 120 -183 -304 -202 -356 -223 -333 -129 l12 49 -562 0 -562 0 0 120 0 120 550 0 550 0 0 72 c0 39 7 68 15 65 8 -4 103 -55 210 -114z m-1824 -343 l559 0 0 -120 0 -120 -560 0 -560 0 0 -60 c0 -78 4 -80 -214 63 -222 147 -223 137 15 260 l189 97 6 -60 7 -60 558 0z"/> <path d="M4843 3918 l-383 -361 0 -1643 0 -1642 75 69 c41 39 138 128 215 200 77 71 221 205 318 297 l178 169 7 1625 c4 904 -1 1630 -10 1636 -10 6 -190 -151 -400 -350z"/> <path d="M640 1910 l0 -1650 1900 0 1900 0 0 1650 0 1650 -908 0 -907 0 -15 -441 c-8 -242 -11 -444 -7 -449 5 -4 53 -19 108 -33 54 -14 136 -49 182 -79 l82 -54 164 165 c143 143 159 167 132 190 -75 62 -15 99 214 130 111 16 111 17 57 -175 -45 -163 -51 -170 -100 -126 -37 34 -44 30 -197 -118 l-159 -154 66 -123 c35 -68 71 -157 79 -199 l14 -75 222 5 c213 6 223 8 229 50 11 78 72 73 202 -16 147 -100 147 -102 27 -171 -52 -30 -116 -71 -143 -91 -65 -49 -82 -45 -82 19 l0 55 -223 0 -223 0 -56 -137 c-30 -75 -69 -152 -87 -171 -51 -58 296 -400 353 -348 50 45 62 25 96 -156 33 -171 42 -164 -157 -114 l-166 42 40 40 41 41 -152 166 c-160 177 -182 188 -257 130 -26 -21 -106 -54 -178 -75 l-131 -38 0 -224 c0 -224 0 -225 50 -238 65 -16 66 -12 -42 -171 l-93 -137 -34 45 c-40 54 -141 227 -141 244 0 6 23 11 50 11 l50 0 0 237 0 237 -85 25 c-47 14 -128 48 -181 77 l-96 51 -163 -158 c-90 -88 -168 -161 -173 -164 -4 -3 8 -23 28 -45 47 -52 38 -59 -134 -100 -174 -41 -175 -40 -126 162 37 151 40 153 94 104 36 -32 45 -26 205 133 l168 167 -56 112 c-31 62 -62 140 -70 175 -18 84 -22 84 -486 68 -14 -1 -25 -23 -25 -51 0 -66 -4 -65 -162 43 -155 106 -159 89 54 223 123 78 124 78 132 9 l6 -55 233 -6 233 -5 14 85 c8 47 40 132 72 188 l58 102 -169 163 c-184 177 -183 177 -230 133 -30 -26 -37 -14 -74 140 l-42 170 57 0 c179 0 311 -54 270 -111 -27 -36 -18 -51 116 -189 80 -82 150 -163 155 -178 7 -22 27 -17 88 25 44 29 131 68 194 86 l115 32 0 448 0 447 -910 0 -910 0 0 -1650z"/> <path d="M2360 2606 c-576 -212 -663 -950 -144 -1232 678 -369 1334 541 770 1068 -154 145 -460 225 -626 164z"/> </g> </svg> 