 <svg  version="1.0" xmlns="http://www.w3.org/2000/svg"  width="300.000000pt" height="300.000000pt" viewBox="0 0 300.000000 300.000000"  preserveAspectRatio="xMidYMid meet">  <g transform="translate(0.000000,300.000000) scale(0.100000,-0.100000)" fill="#9ed0ff" stroke="#9ed0ff"> <path d="M1180 2293 c-27 -10 -30 -26 -30 -155 0 -127 0 -128 -23 -128 -27 0 -47 -17 -47 -40 0 -9 20 -44 45 -78 60 -82 78 -82 139 -3 25 33 46 66 46 74 0 33 -13 47 -41 47 l-29 0 0 129 c0 104 -3 133 -16 145 -16 17 -20 18 -44 9z"/> <path d="M1790 2292 c-27 -9 -30 -25 -30 -154 l0 -128 -29 0 c-28 0 -41 -14 -41 -47 0 -8 21 -41 46 -74 61 -79 79 -79 139 2 25 34 45 67 45 74 0 31 -13 45 -41 45 l-29 0 0 128 c0 70 -4 132 -8 138 -10 15 -34 22 -52 16z"/> <path d="M1460 1991 c-5 -11 -10 -74 -10 -140 l0 -121 -25 0 c-14 0 -29 -8 -35 -20 -12 -23 -5 -40 49 -112 51 -69 74 -66 135 18 43 58 47 68 38 90 -8 16 -20 24 -37 24 l-25 0 0 121 c0 136 -7 159 -50 159 -19 0 -33 -7 -40 -19z"/> <path d="M259 1715 c-15 -8 -79 -77 -143 -154 l-116 -139 0 -303 c0 -350 1 -357 80 -397 l45 -22 1390 2 1390 3 34 24 c59 42 61 58 61 393 l0 303 -115 137 c-63 76 -128 144 -145 153 -25 13 -101 15 -528 15 l-500 0 -4 -45 -3 -45 491 0 c377 0 494 -3 507 -12 9 -7 46 -49 82 -93 l66 -80 -675 -3 c-372 -1 -980 -1 -1352 0 l-675 3 66 80 c36 44 73 86 82 93 13 9 130 12 507 12 l491 0 -3 45 -4 45 -502 0 c-416 -1 -505 -3 -527 -15z m2651 -616 c0 -160 -4 -268 -10 -280 -11 -19 -37 -19 -1400 -19 -1363 0 -1389 0 -1400 19 -6 12 -10 120 -10 280 l0 261 1410 0 1410 0 0 -261z"/> <path d="M1092 1248 c-8 -8 -12 -60 -12 -169 0 -130 3 -160 16 -173 18 -19 28 -20 55 -6 18 10 19 23 19 170 0 87 -3 165 -6 174 -7 19 -55 21 -72 4z"/> <path d="M1277 1253 c-13 -12 -8 -338 5 -351 30 -30 69 -7 77 44 6 39 7 39 58 44 127 13 173 155 78 239 -34 30 -40 31 -124 31 -48 0 -91 -3 -94 -7z m161 -95 c7 -7 12 -21 12 -33 0 -30 -19 -45 -57 -45 -32 0 -33 1 -33 45 0 44 1 45 33 45 18 0 38 -5 45 -12z"/> <path d="M1692 1244 c-12 -8 -29 -28 -37 -44 -43 -83 20 -170 123 -170 23 0 44 -5 48 -12 12 -19 -27 -38 -81 -38 -55 0 -75 -12 -75 -45 0 -35 20 -45 92 -45 108 0 158 40 158 126 0 53 -53 104 -108 104 -53 0 -72 8 -72 31 0 17 8 19 63 19 49 0 68 4 80 18 20 22 22 43 5 60 -19 19 -168 16 -196 -4z"/> <path d="M527 1113 c-4 -3 -7 -19 -7 -34 0 -53 73 -64 86 -13 4 14 1 31 -6 39 -13 15 -61 21 -73 8z"/> <path d="M2402 1108 c-18 -18 -15 -42 8 -63 17 -15 24 -16 46 -7 21 10 25 18 22 45 -3 27 -7 32 -33 35 -17 2 -36 -3 -43 -10z"/> </g> </svg> 