<svg width="492" height="852" viewBox="0 0 492 852" fill="none" xmlns="http://www.w3.org/2000/svg">
<rect width="492" height="347" fill="#FF2323"/>
<rect y="347" width="492" height="505" fill="#3188EC"/>
<path fill-rule="evenodd" clip-rule="evenodd" d="M114 582.938C114 613.686 126.215 643.175 147.957 664.918C169.7 686.66 199.189 698.875 229.938 698.875C260.686 698.875 290.175 686.66 311.918 664.918C333.66 643.175 345.875 613.686 345.875 582.938C345.875 552.189 333.66 522.7 311.918 500.957C290.175 479.215 260.686 467 229.938 467C199.189 467 169.7 479.215 147.957 500.957C126.215 522.7 114 552.189 114 582.938ZM326 582.938C326 608.415 315.879 632.849 297.864 650.864C279.849 668.879 255.415 679 229.938 679C204.46 679 180.026 668.879 162.011 650.864C143.996 632.849 133.875 608.415 133.875 582.938C133.875 557.46 143.996 533.026 162.011 515.011C180.026 496.996 204.46 486.875 229.938 486.875C255.415 486.875 279.849 496.996 297.864 515.011C315.879 533.026 326 557.46 326 582.938Z" fill="#FFFCFC"/>
<path fill-rule="evenodd" clip-rule="evenodd" d="M180.25 582.938C180.25 642.854 200.006 692.25 229.938 692.25C259.869 692.25 279.625 642.854 279.625 582.938C279.625 523.021 259.869 473.625 229.938 473.625C200.006 473.625 180.25 523.021 180.25 582.938ZM259.75 582.938C259.75 632.784 243.916 672.375 229.938 672.375C215.959 672.375 200.125 632.784 200.125 582.938C200.125 533.091 215.959 493.5 229.938 493.5C243.916 493.5 259.75 533.091 259.75 582.938Z" fill="#FFFCFC"/>
<path d="M145.164 522.875L158.493 508.141C159.818 509.343 161.254 510.522 162.8 511.679C179.641 524.293 206.525 532.084 235.873 532.084C260.929 532.084 284.276 526.426 301.209 516.74C305.299 514.4 308.916 511.882 312.061 509.188L324.967 524.306C320.85 527.831 316.222 531.055 311.081 533.979C290.994 545.48 264.255 551.946 235.873 551.946C202.457 551.946 171.412 542.962 150.875 527.579C148.899 526.101 146.994 524.531 145.164 522.875ZM145.164 643.212L158.493 657.946C159.818 656.744 161.254 655.565 162.8 654.408C179.641 641.794 206.525 634.003 235.873 634.003C260.929 634.003 284.276 639.661 301.209 649.346C305.299 651.687 308.916 654.205 312.061 656.899L324.967 641.781C320.642 638.14 315.994 634.903 311.081 632.108C290.994 620.607 264.255 614.141 235.873 614.141C202.457 614.141 171.412 623.125 150.875 638.508C148.899 639.986 146.994 641.556 145.164 643.212ZM120.625 592.875V573H339.25V592.875H120.625Z" fill="#FFFCFC"/>
<g clip-path="url(#clip0_3_12)">
<path d="M113.112 135.543L361.598 137.911L306.222 81.469M360.888 212.457L112.402 210.089L167.778 266.531" stroke="#FFFDFD" stroke-width="10" stroke-linecap="round" stroke-linejoin="round"/>
</g>
<defs>
<clipPath id="clip0_3_12">
<rect width="246" height="246" fill="white" transform="translate(114 51)"/>
</clipPath>
</defs>
</svg>
